<?xml version="1.0" standalone="no"?>
<!DOCTYPE svg PUBLIC "-//W3C//DTD SVG 20010904//EN"
 "http://www.w3.org/TR/2001/REC-SVG-20010904/DTD/svg10.dtd">
<svg version="1.0" xmlns="http://www.w3.org/2000/svg"
 width="50.000000pt" height="50.000000pt" viewBox="0 0 50.000000 50.000000"
 preserveAspectRatio="xMidYMid meet">

<g transform="translate(0.000000,50.000000) scale(0.100000,-0.100000)"
fill="#000000" stroke="none">
<path d="M193 466 c-66 -30 -88 -108 -54 -194 23 -59 98 -182 111 -182 12 0
88 123 110 180 24 60 25 89 6 135 -26 61 -108 90 -173 61z m113 -25 c45 -27
61 -72 45 -130 -12 -46 -89 -191 -101 -191 -12 0 -89 145 -101 191 -16 58 0
103 45 130 39 24 73 24 112 0z"/>
<path d="M216 384 c-31 -30 -9 -84 34 -84 24 0 50 26 50 50 0 24 -26 50 -50
50 -10 0 -26 -7 -34 -16z m59 -34 c0 -18 -6 -26 -23 -28 -13 -2 -25 3 -28 12
-10 26 4 48 28 44 17 -2 23 -10 23 -28z"/>
<path d="M46 106 c-14 -41 -26 -77 -26 -80 0 -3 104 -6 230 -6 127 0 230 3
230 6 0 3 -12 39 -26 80 l-27 74 -38 0 c-21 0 -41 -4 -44 -10 -4 -6 8 -10 30
-10 31 0 38 -4 50 -33 7 -18 17 -45 20 -60 l7 -27 -202 0 -202 0 7 27 c3 15
13 42 20 60 12 29 19 33 50 33 22 0 34 4 30 10 -3 6 -23 10 -44 10 l-38 0 -27
-74z"/>
</g>
</svg>
