<svg width="19" height="22" viewBox="0 0 19 22" fill="none" xmlns="http://www.w3.org/2000/svg">
<path d="M18.4856 17.1449C18.1529 17.9135 17.7591 18.621 17.3028 19.2714C16.6809 20.1581 16.1717 20.7719 15.7792 21.1127C15.1709 21.6722 14.5191 21.9587 13.8211 21.975C13.32 21.975 12.7158 21.8324 12.0124 21.5432C11.3066 21.2553 10.6581 21.1127 10.0651 21.1127C9.44317 21.1127 8.77616 21.2553 8.06271 21.5432C7.34817 21.8324 6.77255 21.9832 6.33245 21.9981C5.66313 22.0266 4.99599 21.732 4.33006 21.1127C3.90503 20.742 3.37341 20.1065 2.73654 19.2062C2.05324 18.2448 1.49146 17.13 1.05136 15.8589C0.580028 14.4861 0.34375 13.1567 0.34375 11.8696C0.34375 10.3953 0.662318 9.12378 1.3004 8.05821C1.80188 7.20232 2.46903 6.52716 3.30402 6.03151C4.139 5.53587 5.0412 5.2833 6.0128 5.26714C6.54442 5.26714 7.24158 5.43158 8.10793 5.75477C8.97184 6.07904 9.52655 6.24349 9.76975 6.24349C9.95158 6.24349 10.5678 6.0512 11.6125 5.66786C12.6003 5.31236 13.4341 5.16516 14.1171 5.22314C15.968 5.37251 17.3585 6.10213 18.2832 7.4166C16.6279 8.41956 15.8091 9.82433 15.8254 11.6264C15.8403 13.0301 16.3496 14.1982 17.3503 15.1257C17.8039 15.5561 18.3104 15.8888 18.8739 16.1251C18.7517 16.4795 18.6227 16.819 18.4856 17.1449ZM14.2407 0.441082C14.2407 1.54128 13.8388 2.56854 13.0376 3.51936C12.0707 4.64969 10.9013 5.30285 9.63315 5.19979C9.61699 5.0678 9.60762 4.92888 9.60762 4.7829C9.60762 3.72671 10.0674 2.59638 10.8839 1.67217C11.2916 1.20423 11.81 0.815149 12.4387 0.504768C13.0661 0.199018 13.6595 0.0299319 14.2176 0.000976562C14.2339 0.148056 14.2407 0.295146 14.2407 0.441068V0.441082Z" fill="#121212"/>
</svg>
