<?xml version="1.0" standalone="no"?>
<!DOCTYPE svg PUBLIC "-//W3C//DTD SVG 20010904//EN"
 "http://www.w3.org/TR/2001/REC-SVG-20010904/DTD/svg10.dtd">
<svg version="1.0" xmlns="http://www.w3.org/2000/svg"
 width="24.000000pt" height="24.000000pt" viewBox="0 0 24.000000 24.000000"
 preserveAspectRatio="xMidYMid meet">

<g transform="translate(0.000000,24.000000) scale(0.100000,-0.100000)"
fill="#000000" stroke="none">
<path d="M33 175 c9 -55 43 -101 91 -124 62 -31 86 -28 86 9 0 26 -4 30 -28
30 -15 0 -33 -5 -39 -11 -8 -8 -17 -8 -32 0 -29 16 -46 50 -32 64 6 6 11 24
11 39 0 25 -4 28 -31 28 -31 0 -31 -1 -26 -35z"/>
</g>
</svg>
